<svg xmlns="http://www.w3.org/2000/svg" width="640" height="640" viewBox="0 0 640 640">
  <g fill="none" fill-rule="evenodd">
    <rect width="640" height="640" fill="#EC4432"/>
    <path fill="#FFFFFF" fill-rule="nonzero" d="M184.056,46.312 C185.512,47.412 186.892,48.576 188.248,49.764 L210.096,32.62 L210.776,31.732 C207.432,28.352 203.84,25.156 199.944,22.216 C149.808,-15.632 74.036,0.212 30.72,57.612 C-12.592,115 -7.06,192.196 43.088,230.048 C84.032,260.952 142.044,256.048 185.536,221.976 L185.492,221.888 L164.692,205.572 C132.464,226.3 92.48,227.792 63.552,205.96 C25.036,176.884 20.784,117.584 54.052,73.496 C87.332,29.408 145.536,17.24 184.056,46.312 Z" transform="translate(214 194)"/>
  </g>
</svg>
