<svg xmlns="http://www.w3.org/2000/svg" width="396" height="316"><defs><linearGradient id="a" x1="50%" x2="50%" y1="0%" y2="100%"><stop stop-color="#E464F6" offset="0%"/><stop stop-color="#B323E5" offset="100%"/></linearGradient><linearGradient id="b" x1="50%" x2="50%" y1="0%" y2="100%"><stop stop-color="#F6D300" offset="0%"/><stop stop-color="#E58100" offset="100%"/></linearGradient><linearGradient id="c" x1="50%" x2="50%" y1="0%" y2="100%"><stop stop-color="#F6ED00" offset="0%"/><stop stop-color="#E4CC00" offset="100%"/></linearGradient></defs><g fill="none" fill-rule="evenodd"><path fill="#333" d="M338.015 163.046l4.61-4.609-37.124-37.122v.034c-10.07-10.078-24.202-16.095-39.7-15.35-27.935 1.344-49.766 24.977-49.924 52.943-.273 48.017-39.42 86.995-87.499 86.995-5.941 0-11.744-.6-17.356-1.734 22.241 22.65 53.18 36.734 87.356 36.734 52.073 0 96.654-32.663 114.347-78.576 5.668-14.707 14.145-28.17 25.29-39.315zm-208.047 47.868c28.554-.848 50.91-25.026 50.91-53.594V37.183c-59.286 8.518-105 59.649-105 121.254 0 29.477 24.419 53.358 54.09 52.477zm262.154-52.477l-17.885 17.885c-13.555 13.555-24.43 29.514-32.35 46.972-24.763 54.584-79.772 92.643-143.509 92.643-85.009 0-154.098-66.345-157.38-151.29C37.534 74.984 109.472.936 198.378.936h17.5v87.548c14.635-11.01 32.817-17.548 52.5-17.548 24.129 0 46.008 9.818 61.852 25.667l.02-.039 61.872 61.872zm-106.244 0c0 9.665-7.835 17.5-17.5 17.5s-17.5-7.835-17.5-17.5 7.835-17.5 17.5-17.5 17.5 7.835 17.5 17.5z"/><path fill="#FFF" d="M268.378 140.937c9.665 0 17.5 7.835 17.5 17.5s-7.835 17.5-17.5 17.5-17.5-7.835-17.5-17.5 7.835-17.5 17.5-17.5M111.022 244.203c22.241 22.65 53.18 36.734 87.356 36.734 52.073 0 96.654-32.664 114.347-78.576 5.668-14.707 14.145-28.17 25.29-39.315l4.61-4.609-37.124-37.122v.034c-10.07-10.078-24.202-16.095-39.7-15.35-27.935 1.343-49.766 24.977-49.924 52.942-.273 48.018-39.419 86.996-87.499 86.996-5.941 0-11.744-.6-17.356-1.734"/><path fill="url(#a)" d="M105.378 207.427c20.369-7.224 35-26.677 35-49.49V36.683c-12.358 1.776-24.112 5.426-35 10.613v160.13z" transform="translate(40.5 .5)"/><path fill="url(#b)" d="M70.378 72.322v135.105a52.24 52.24 0 0 0 17.5 3.01 52.24 52.24 0 0 0 17.5-3.01V47.296a123.072 123.072 0 0 0-35 25.026" transform="translate(40.5 .5)"/><path fill="url(#c)" d="M70.378 207.427V72.322c-21.63 22.102-35 52.32-35 85.615 0 22.813 14.632 42.266 35 49.49" transform="translate(40.5 .5)"/></g></svg>
