<svg width="28" height="28" viewBox="0 0 28 28" fill="none" xmlns="http://www.w3.org/2000/svg">
<path d="M14 28C17.2 28 20.1492 26.9264 22.5072 25.1197C22.112 25.1159 21.7037 25.0697 21.2831 24.9762C19.9212 24.6735 18.9215 23.9716 18.2503 23.0098C17.5957 22.0719 17.2955 20.9491 17.1919 19.8433C17.0376 18.1974 17.3048 16.4365 17.6675 15H14C12.9699 15 12.0406 14.9017 11.213 14.7117C8.95374 17.4509 6.06884 20.8352 3.76106 23.5207C5.18061 25.0548 6.9412 26.2794 8.94027 27.0577C10.5095 27.6662 12.2158 28 14 28Z" fill="black"/>
<path d="M0 14C0 16.8887 0.909581 19.642 2.48906 21.9322C4.59839 19.4758 7.134 16.4998 9.2238 13.9788C8.53606 13.6043 7.96618 13.131 7.52584 12.5679C6.82454 11.6711 6.5 10.6074 6.5 9.5C6.5 6.52459 8.87386 4 11.5 4C12.8099 4 14.1253 4.64633 14.8847 5.74329C15.6869 6.90199 15.7946 8.45261 14.8575 10.0145C14.5247 10.5691 13.7152 11.6265 12.6664 12.9302C13.0752 12.9756 13.5192 13 14 13H19C19.3214 13 19.6233 13.1545 19.8112 13.4153C19.9992 13.6761 20.0503 14.0113 19.9487 14.3162C19.4693 15.7543 19.0141 17.8531 19.1831 19.6567C19.267 20.5509 19.4981 21.3031 19.8903 21.8652C20.266 22.4034 20.8288 22.8265 21.7169 23.0238C23.4361 23.4059 24.9419 22.6004 26.1096 20.8767C26.4495 20.3749 26.7504 19.8064 27.0067 19.1893C27.5612 17.8009 27.8997 16.3029 27.9809 14.7368C27.9936 14.4921 28 14.2463 28 14C28 6.53049 21.9262 0 14 0C12.4721 0 11.0015 0.244739 9.625 0.697159C3.94488 2.5704 0 7.98026 0 14Z" fill="black"/>
<path d="M13.1425 8.9855C12.8333 9.50078 11.8742 10.7395 10.5275 12.3933C9.87375 12.1035 9.41298 11.7344 9.1013 11.3358C8.70192 10.8252 8.5 10.2065 8.5 9.5C8.5 7.47541 10.1261 6 11.5 6C12.1901 6 12.8747 6.35367 13.2403 6.88171C13.5631 7.34801 13.7054 8.04739 13.1425 8.9855Z" fill="black"/>
</svg>
