<svg width="32" height="32" viewBox="0 0 32 32" fill="none" xmlns="http://www.w3.org/2000/svg">
<g clip-path="url(#clip0_302_10)">
<circle cx="16" cy="16" r="14" fill="white"/>
<path d="M16 30C19.2 30 22.1492 28.9264 24.5072 27.1197C24.112 27.1159 23.7037 27.0697 23.2831 26.9762C21.9212 26.6735 20.9215 25.9716 20.2503 25.0098C19.5957 24.0719 19.2955 22.9491 19.1919 21.8433C19.0376 20.1974 19.3048 18.4365 19.6675 17H16C14.9699 17 14.0406 16.9017 13.213 16.7117C10.9537 19.4509 8.06884 22.8352 5.76106 25.5207C7.18061 27.0548 8.9412 28.2794 10.9403 29.0577C12.5095 29.6662 14.2158 30 16 30Z" fill="black"/>
<path d="M2 16C2 18.8887 2.90958 21.642 4.48906 23.9322C6.59839 21.4758 9.134 18.4998 11.2238 15.9788C10.5361 15.6043 9.96618 15.131 9.52584 14.5679C8.82454 13.6711 8.5 12.6074 8.5 11.5C8.5 8.52459 10.8739 6 13.5 6C14.8099 6 16.1253 6.64633 16.8847 7.74329C17.6869 8.90199 17.7946 10.4526 16.8575 12.0145C16.5247 12.5691 15.7152 13.6265 14.6664 14.9302C15.0752 14.9756 15.5192 15 16 15H21C21.3214 15 21.6233 15.1545 21.8112 15.4153C21.9992 15.6761 22.0503 16.0113 21.9487 16.3162C21.4693 17.7543 21.0141 19.8531 21.1831 21.6567C21.267 22.5509 21.4981 23.3031 21.8903 23.8652C22.266 24.4034 22.8288 24.8265 23.7169 25.0238C25.4361 25.4059 26.9419 24.6004 28.1096 22.8767C28.4495 22.3749 28.7504 21.8064 29.0067 21.1893C29.5612 19.8009 29.8997 18.3029 29.9809 16.7368C29.9936 16.4921 30 16.2463 30 16C30 8.53049 23.9262 2 16 2C14.4721 2 13.0015 2.24474 11.625 2.69716C5.94488 4.5704 2 9.98026 2 16Z" fill="black"/>
<path d="M15.1425 10.9855C14.8333 11.5008 13.8742 12.7395 12.5275 14.3933C11.8738 14.1035 11.413 13.7344 11.1013 13.3358C10.7019 12.8252 10.5 12.2065 10.5 11.5C10.5 9.47541 12.1261 8 13.5 8C14.1901 8 14.8747 8.35367 15.2403 8.88171C15.5631 9.34801 15.7054 10.0474 15.1425 10.9855Z" fill="black"/>
</g>
<defs>
<clipPath id="clip0_302_10">
<rect width="32" height="32" fill="white"/>
</clipPath>
</defs>
</svg>
