<svg xmlns="http://www.w3.org/2000/svg" width="80" height="80" fill="none"><g clip-path="url(#a)"><rect width="80" height="80" fill="#fff" rx="16"/><path fill="#000" d="m7.878 61.477-2.524 1.622L8.6 68.146l2.523-1.623-3.244-5.046ZM42 33l2.507 1.648L42 33Zm10 7 2.846.949A3 3 0 0 0 52 37v3Zm1.342 29.683 2.683-1.341-2.683-5.367-2.684 1.342 2.684 5.366ZM9.5 64a648.194 648.194 0 0 0 1.625 2.522l.005-.003.014-.01.053-.034.192-.125a117.326 117.326 0 0 0 3.32-2.294 153.018 153.018 0 0 0 8.647-6.687c6.786-5.644 15.167-13.614 21.151-22.721l-5.014-3.296c-5.516 8.393-13.385 15.923-19.974 21.404a147.108 147.108 0 0 1-8.305 6.422 111.557 111.557 0 0 1-3.125 2.16c-.074.05-.129.085-.164.108l-.039.025-.008.005h-.001c0 .001 0 0 0 0L9.5 64Zm35.007-29.352C49.21 27.49 44.582 19 37 19v6c2.418 0 4.79 2.856 2.493 6.352l5.014 3.296ZM37 19c-6.657 0-12 5.343-12 12h6c0-3.343 2.657-6 6-6v-6ZM25 31c0 3.376 1.39 6.531 4.303 8.758C32.126 41.917 36.102 43 41 43v-6c-4.102 0-6.626-.917-8.053-2.008C31.61 33.969 31 32.624 31 31h-6Zm16 12H52v-6H41v6Zm13.176 15.885c2.31.66 4.598.608 6.709-.187 2.09-.786 3.813-2.227 5.152-4.04C68.677 51.088 70 45.876 70 40h-6c0 5.124-1.177 8.912-2.788 11.092-.785 1.062-1.625 1.684-2.44 1.99-.796.3-1.758.373-2.948.033l-1.648 5.77ZM70 40C70 22.851 59.123 7 40 7v6c14.877 0 24 12.149 24 27h6ZM40 7C20.877 7 10 22.851 10 40h6c0-14.851 9.123-27 24-27V7ZM10 40c0 17.149 10.877 33 30 33v-6c-14.877 0-24-12.149-24-27h-6Zm39.154-.949c-.995 2.984-2.177 6.961-2.026 10.574.077 1.858.512 3.834 1.689 5.563 1.21 1.78 3.025 3.03 5.359 3.697l1.648-5.77c-1.166-.333-1.727-.832-2.047-1.303-.354-.52-.607-1.295-.655-2.437-.1-2.387.718-5.41 1.724-8.426l-5.692-1.898ZM40 73c6.188 0 11.185-2.238 13.342-3.317l-2.684-5.366C48.815 65.238 44.812 67 40 67v6Z"/></g><defs><clipPath id="a"><path fill="#fff" d="M0 0h80v80H0z"/></clipPath></defs></svg>