<svg xmlns="http://www.w3.org/2000/svg" width="640" height="640" viewBox="0 0 640 640">
  <g fill="none" fill-rule="evenodd">
    <rect width="640" height="640" fill="#EC4432"/>
    <path fill="#FFFFFF" fill-rule="nonzero" d="M195.096605,32.6724284 C196.780563,33.9448219 198.376621,35.2912456 199.944922,36.6654306 L225.213536,16.8345992 L226,15.8074306 C222.132449,11.8977123 217.978071,8.20083079 213.472097,4.80006992 C155.486595,-38.979521 67.8514139,-20.6524274 17.7536798,45.74338 C-32.339428,112.125307 -25.941315,201.419571 32.0580656,245.203788 C79.4124294,280.951106 146.507031,275.278544 196.80832,235.866733 L196.757431,235.764942 L172.700896,216.891876 C135.427146,240.868397 89.1830836,242.594225 55.725995,217.340684 C11.179769,183.707853 6.26205808,115.114275 44.7386353,64.1167424 C83.2290912,13.1192101 150.545753,-0.955775676 195.096605,32.6724284 Z" transform="translate(215 195)"/>
  </g>
</svg>
