<svg xmlns="http://www.w3.org/2000/svg" width="640" height="640" viewBox="0 0 640 640" xmlns:xlink="http://www.w3.org/1999/xlink">
  <defs>
    <linearGradient id="b" x1="50%" x2="50%" y1="100%" y2="0%">
      <stop stop-color="#000000" stop-opacity=".5" offset="0%"/>
      <stop stop-color="#FFFFFF" stop-opacity=".5" offset="100%"/>
    </linearGradient>
    <path id="a" d="M105.37815,207.42695 C125.74665,200.20295 140.37815,180.75045 140.37815,157.93745 L140.37815,36.68295 C128.02015,38.45895 116.26565,42.10895 105.37815,47.29595 L105.37815,207.42695 Z"/>
    <linearGradient id="d" x1="50%" x2="50%" y1="0%" y2="100%">
      <stop stop-color="#FFFFFF" stop-opacity=".5" offset="0%"/>
      <stop stop-color="#000000" stop-opacity=".5" offset="100%"/>
    </linearGradient>
    <path id="c" d="M70.37815,72.32235 L70.37815,207.42685 C75.85565,209.36985 81.74315,210.43735 87.87815,210.43735 C94.01315,210.43735 99.90065,209.36985 105.37815,207.42685 L105.37815,47.29585 C92.26215,53.54535 80.42865,62.05285 70.37815,72.32235"/>
    <linearGradient id="f" x1="50%" x2="50%" y1="0%" y2="100%">
      <stop stop-color="#FFFFFF" stop-opacity=".504" offset="0%"/>
      <stop stop-color="#000000" stop-opacity=".502" offset="100%"/>
    </linearGradient>
    <path id="e" d="M70.37815,207.42695 L70.37815,72.32245 C48.74765,94.42445 35.37815,124.64295 35.37815,157.93745 C35.37815,180.75045 50.00965,200.20295 70.37815,207.42695"/>
  </defs>
  <g fill="none" fill-rule="evenodd">
    <rect width="640" height="640" fill="#EEDD00"/>
    <g transform="translate(162.5 162.5)">
      <path fill="#474207" d="M297.51525,162.5462 L302.12425,157.9372 L265.00125,120.8147 L265.00075,120.8487 C254.93175,110.7707 240.79875,104.7542 225.30025,105.4992 C197.36625,106.8427 175.53525,130.4757 175.37675,158.4417 C175.10425,206.4587 135.95775,245.4372 87.87825,245.4372 C81.93675,245.4372 76.13375,244.8367 70.52175,243.7027 C92.76325,266.3537 123.70125,280.4372 157.87825,280.4372 C209.95125,280.4372 254.53175,247.7737 272.22525,201.8612 C277.89325,187.1537 286.37025,173.6912 297.51525,162.5462 Z M89.46775,210.4137 C118.02225,209.5657 140.37825,185.3877 140.37825,156.8202 L140.37825,36.6832 C81.09175,45.2007 35.37825,96.3317 35.37825,157.9372 C35.37825,187.4137 59.79675,211.2947 89.46775,210.4137 Z M351.62175,157.9372 L333.73725,175.8217 C320.18175,189.3772 309.30725,205.3362 301.38725,222.7937 C276.62375,277.3782 221.61525,315.4372 157.87825,315.4372 C72.86925,315.4372 3.78025,249.0917 0.49825,164.1462 C-2.96575,74.4847 68.97225,0.4372 157.87825,0.4372 L175.37825,0.4372 L175.37825,87.9852 C190.01275,76.9742 208.19525,70.4372 227.87825,70.4372 C252.00675,70.4372 273.88575,80.2547 289.73025,96.1037 L289.75025,96.0652 L351.62175,157.9372 Z M245.37825,157.9372 C245.37825,167.6022 237.54325,175.4372 227.87825,175.4372 C218.21325,175.4372 210.37825,167.6022 210.37825,157.9372 C210.37825,148.2722 218.21325,140.4372 227.87825,140.4372 C237.54325,140.4372 245.37825,148.2722 245.37825,157.9372 Z"/>
      <path fill="#FFFFFF" d="M227.87815,140.4373 C237.54315,140.4373 245.37815,148.2723 245.37815,157.9373 C245.37815,167.6023 237.54315,175.4373 227.87815,175.4373 C218.21315,175.4373 210.37815,167.6023 210.37815,157.9373 C210.37815,148.2723 218.21315,140.4373 227.87815,140.4373 M70.52165,243.7028 C92.76315,266.3538 123.70115,280.4373 157.87815,280.4373 C209.95115,280.4373 254.53165,247.7733 272.22515,201.8608 C277.89315,187.1543 286.37015,173.6918 297.51515,162.5463 L302.12415,157.9373 L265.00115,120.8148 L265.00065,120.8488 C254.93165,110.7708 240.79865,104.7543 225.30015,105.4993 C197.36615,106.8423 175.53515,130.4758 175.37665,158.4413 C175.10415,206.4588 135.95815,245.4373 87.87815,245.4373 C81.93665,245.4373 76.13365,244.8368 70.52165,243.7028"/>
      <use fill="#CC44EE" xlink:href="#a"/>
      <use fill="url(#b)" style="mix-blend-mode:overlay" xlink:href="#a"/>
      <use fill="#EEAA00" xlink:href="#c"/>
      <use fill="url(#d)" style="mix-blend-mode:overlay" xlink:href="#c"/>
      <g>
        <use fill="#EEDD00" style="mix-blend-mode:multiply" xlink:href="#e"/>
        <use fill="url(#f)" style="mix-blend-mode:overlay" xlink:href="#e"/>
      </g>
    </g>
  </g>
</svg>
